<svg xmlns="http://www.w3.org/2000/svg" 
width="200" 
height="200" 
viewBox="0 0 200 200" 
fill="none">
<path d="M52.0249 100.002C56.4597 100.002 60.0547 96.4767 60.0547 92.1276C60.0547 87.7786 56.4597 84.2529 52.0249 84.2529C47.5902 84.2529 43.9951 87.7786 43.9951 92.1276C43.9951 96.4767 47.5902 100.002 52.0249 100.002Z" fill="#19A194"></path><path d="M64.7386 113.814H39.3428C39.3428 106.939 45.0146 101.377 52.0248 101.377C59.0349 101.377 64.7386 106.939 64.7386 113.814Z" fill="#19A194"></path><path d="M147.714 99.9313C151.822 99.9313 155.153 96.6649 155.153 92.6355C155.153 88.6062 151.822 85.3398 147.714 85.3398C143.605 85.3398 140.274 88.6062 140.274 92.6355C140.274 96.6649 143.605 99.9313 147.714 99.9313Z" fill="#F89310"></path><path d="M159.463 112.727H135.935C135.935 106.357 141.189 101.204 147.684 101.204C154.179 101.204 159.463 106.357 159.463 112.727Z" fill="#F89310"></path><path d="M99.8673 134.144C103.858 134.144 107.093 130.971 107.093 127.058C107.093 123.144 103.858 119.972 99.8673 119.972C95.8767 119.972 92.6416 123.144 92.6416 127.058C92.6416 130.971 95.8767 134.144 99.8673 134.144Z" fill="#F89310"></path><path d="M111.308 146.574H88.4551C88.4551 140.387 93.559 135.382 99.8672 135.382C106.175 135.382 111.308 140.387 111.308 146.574Z" fill="#F89310"></path><path d="M147.714 168.425C152.011 168.425 155.494 165.009 155.494 160.795C155.494 156.582 152.011 153.166 147.714 153.166C143.418 153.166 139.935 156.582 139.935 160.795C139.935 165.009 143.418 168.425 147.714 168.425Z" fill="#F89310"></path><path d="M160.001 181.806H135.396C135.396 175.146 140.892 169.757 147.683 169.757C154.475 169.757 160.001 175.146 160.001 181.806Z" fill="#F89310"></path><path d="M99.8672 66.4801C104.465 66.4801 108.192 62.8248 108.192 58.3157C108.192 53.8067 104.465 50.1514 99.8672 50.1514C95.2693 50.1514 91.542 53.8067 91.542 58.3157C91.542 62.8248 95.2693 66.4801 99.8672 66.4801Z" fill="#F89310"></path><path d="M113.048 80.7998H86.7178C86.7178 73.6722 92.5982 67.9053 99.8662 67.9053C107.134 67.9053 113.048 73.6722 113.048 80.7998Z" fill="#F89310"></path><path d="M147.715 32.8511C151.868 32.8511 155.234 29.5495 155.234 25.4768C155.234 21.4041 151.868 18.1025 147.715 18.1025C143.562 18.1025 140.195 21.4041 140.195 25.4768C140.195 29.5495 143.562 32.8511 147.715 32.8511Z" fill="#F89310"></path><path d="M159.59 45.7853H135.808C135.808 39.3475 141.119 34.1387 147.684 34.1387C154.248 34.1387 159.59 39.3475 159.59 45.7853Z" fill="#F89310"></path><path d="M67.7344 99.8462L84.4832 81.6133" stroke="#19A194" stroke-miterlimit="10"></path><path d="M113.521 54.9449L130.269 36.7119" stroke="#19A194" stroke-miterlimit="10"></path><path d="M67.6797 106.212L86.2717 122.637" stroke="#19A194" stroke-miterlimit="10"></path><path d="M133.473 104.404L116.725 122.637" stroke="#19A194" stroke-miterlimit="10"></path><path d="M133.528 98.0386L114.936 81.6133" stroke="#19A194" stroke-miterlimit="10"></path><path d="M113.465 151.113L132.057 167.539" stroke="#19A194" stroke-miterlimit="10"></path></svg>