 <svg xmlns="http://www.w3.org/2000/svg"
                                    width="350"
                                    height="350"
                                    viewBox="0 0 200 200"
                                    fill="none">
                                    <path d="M20.9796 99.2831L21.3737 99.6562L21.2757 100.19L18.441 115.616L32.8677 107.619L33.2888 107.386L33.734 107.569C38.9484 109.721 44.677 110.95 50.7343 110.95C73.8711 110.95 92.5166 93.4235 92.5166 71.9975C92.5166 50.5702 73.8696 33 50.7343 33C27.5997 33 9 50.5246 9 71.9975C9 82.61 13.5766 92.2743 20.9796 99.2831Z"
                                        stroke="#19A194"
                                        stroke-width="2"></path>
                                    <path d="M179.881 130.955L179.521 131.321L179.608 131.826L182.191 146.905L169.132 139.14L168.688 138.877L168.216 139.086C163.451 141.195 158.218 142.399 152.688 142.399C131.587 142.399 114.471 125.236 114.471 104.112C114.471 82.987 131.588 65.7812 152.688 65.7812C173.787 65.7812 190.861 82.9422 190.861 104.112C190.861 114.566 186.658 124.073 179.881 130.955Z"
                                        stroke="#19A194"
                                        stroke-width="2"></path>
                                    <path d="M143.401 114.296C143.401 127.022 138.303 138.596 130.084 146.976L133.57 167.401L115.936 156.874C110.162 159.441 103.816 160.907 97.1053 160.907C71.5128 160.907 50.7578 140.01 50.7578 114.296C50.7578 88.5808 71.5128 67.6318 97.1053 67.6318C122.698 67.6318 143.401 88.5284 143.401 114.296Z"
                                        fill="#f4908a"></path>
                                </svg>