<svg xmlns="http://www.w3.org/2000/svg"
                                    width="400"
                                    height="400"
                                    viewBox="0 0 200 200"
                                    fill="none">
                                    <path
                                        fill-rule="evenodd"
                                        clip-rule="evenodd"
                                        d="M98.1248 35.3029C64.6049 35.3029 37.4317 61.9513 37.4317 94.8239C37.4317 127.696 64.6049 154.345 98.1248 154.345C131.645 154.345 158.818 127.696 158.818 94.8239C158.818 61.9513 131.645 35.3029 98.1248 35.3029ZM35.9219 94.8239C35.9219 61.1336 63.7711 33.8223 98.1248 33.8223C132.479 33.8223 160.328 61.1336 160.328 94.8239C160.328 128.514 132.479 155.825 98.1248 155.825C63.7711 155.825 35.9219 128.514 35.9219 94.8239Z"
                                        fill="#19A194"></path>
                                    <path d="M116.826 155.429L85.311 173.504C84.644 173.836 83.8937 173.836 83.3101 173.504C82.7264 173.173 82.3096 172.509 82.3096 171.763V135.53C82.3096 134.784 82.6431 134.12 83.3101 133.706C83.977 133.374 84.7274 133.374 85.3944 133.706L116.91 151.864C117.577 152.196 117.993 152.942 117.91 153.688C117.91 154.434 117.493 155.098 116.826 155.429Z"
                                        fill="#f4908a"></path>
                                    <path d="M60.4792 128.42H31.2312C29.3683 128.42 27.8779 126.959 27.8779 125.132V96.4487C27.8779 94.6217 29.3683 93.1602 31.2312 93.1602H60.4792C62.3421 93.1602 63.8324 94.6217 63.8324 96.4487V125.132C63.8324 126.959 62.3421 128.42 60.4792 128.42Z"
                                        fill="#f4908a"></path>
                                    <path d="M56.2868 132.531H27.0388C25.1759 132.531 23.6855 131.069 23.6855 129.242V100.559C23.6855 98.7321 25.1759 97.2705 27.0388 97.2705H56.2868C58.1497 97.2705 59.6401 98.7321 59.6401 100.559V129.242C59.7332 131.069 58.1497 132.531 56.2868 132.531Z"
                                        fill="#f4908a"></path>
                                    <path
                                        fill-rule="evenodd"
                                        clip-rule="evenodd"
                                        d="M27.4027 98.4971C26.0549 98.4971 24.9821 99.5493 24.9821 100.871V129.543C24.9821 130.865 26.0549 131.917 27.4027 131.917H56.6358C58.0285 131.917 59.121 130.833 59.0576 129.588L59.0564 129.566V100.871C59.0564 99.5493 57.9836 98.4971 56.6358 98.4971H27.4027ZM23.1201 100.871C23.1201 98.5407 25.0265 96.6709 27.4027 96.6709H56.6358C59.012 96.6709 60.9184 98.5407 60.9184 100.871V129.521C61.0261 131.917 58.9593 133.743 56.6358 133.743H27.4027C25.0265 133.743 23.1201 131.873 23.1201 129.543V100.871Z"
                                        fill="white"></path
                                    ><path d="M157.64 58.7879C157.64 64.6998 155.851 67.3786 149.822 67.3786H126.274C120.246 67.3786 117.797 64.9769 117.797 59.065V41.1445H157.64V58.7879Z"
                                        fill="#f4908a"></path>
                                    <path d="M134.751 61.4685L143.134 55.5566C144.076 54.91 144.076 53.8015 143.134 53.1549L134.751 47.243C133.809 46.5964 133.056 46.9659 133.056 48.0743V60.6371C133.056 61.7456 133.809 62.1151 134.751 61.4685Z"
                                        fill="#19A194"></path>
                                    <path d="M146.807 28.3975C154.531 28.3975 157.64 30.4297 157.64 38.2814H148.597L144.358 28.3975H146.807V28.3975Z"
                                        fill="#f4908a"></path>
                                    <path d="M141.157 28.3975L145.396 38.1891H135.223L130.984 28.3975H141.157Z"
                                        fill="#f4908a"></path>
                                    <path d="M127.781 28.3975L131.925 38.1891H117.891C117.891 30.6144 120.434 28.3975 127.781 28.3975Z"
                                        fill="#f4908a"></path>
                                    <path d="M174.451 132.905H139.563C138.281 132.905 137.197 131.841 137.197 130.585V96.3704C137.197 95.1139 138.281 94.0508 139.563 94.0508H174.451C175.732 94.0508 176.816 95.1139 176.816 96.3704V130.585C176.816 131.841 175.732 132.905 174.451 132.905Z"
                                        fill="#f4908a"></path>
                                    <path d="M161.145 109.031L153.261 119.953L149.122 114.154L142.617 123.142H150.994H155.626H171.297L161.145 109.031Z"
                                        fill="#19A194"></path>
                                    <path d="M151.882 109.031C153.188 109.031 154.247 107.992 154.247 106.711C154.247 105.43 153.188 104.392 151.882 104.392C150.576 104.392 149.517 105.43 149.517 106.711C149.517 107.992 150.576 109.031 151.882 109.031Z"
                                        fill="#19A194"></path>
                                    <path d="M81.0892 70.8128H45.1436V36.6237H56.2719V26H81.0892V70.8128Z"
                                        fill="#f4908a"></path><path d="M75.7716 36.624H50.4619V37.783H75.7716V36.624Z"
                                            fill="#19A194"></path><path d="M72.9156 42.0312H50.4619V43.1902H72.9156V42.0312Z"
                                                fill="#19A194"></path><path d="M75.7716 47.4395H50.4619V48.5984H75.7716V47.4395Z"
                                                    fill="#19A194"></path><path d="M64.0523 52.8496H50.4619V54.0086H64.0523V52.8496Z"
                                                        fill="#19A194"></path><path d="M68.8777 53.3327L66.8096 50.2422L81.4833 40.874L83.5514 43.9646L68.8777 53.3327Z"
                                                            fill="#19A194"></path><path d="M84.6335 43.2882C85.1259 42.9985 85.3228 42.3224 84.9289 41.8395L84.0426 40.4874C83.7471 40.0045 82.9593 39.8114 82.5653 40.1977L81.876 40.584L83.9441 43.6746L84.6335 43.2882Z"
                                                                fill="#19A194"></path><path d="M64.5446 53.5263C64.4461 53.6229 64.4461 53.816 64.5446 53.9126C64.5446 54.0092 64.643 54.0092 64.7415 54.0092H64.84L68.1884 53.5263L66.3172 50.6289L64.5446 53.5263Z"
                                                                    fill="#19A194"></path>
                                    <path opacity="0.5" d="M45.1436 36.6237L56.2719 26V36.6237H45.1436Z"
                                        fill="#f4908a"></path>
                                </svg>